<?xml version="1.0" encoding="UTF-8"?>
<svg width="84px" height="28px" viewBox="0 0 84 28" version="1.1" xmlns="http://www.w3.org/2000/svg" xmlns:xlink="http://www.w3.org/1999/xlink">
    <!-- Generator: Sketch 48.1 (47250) - http://www.bohemiancoding.com/sketch -->
    <title>Rectangle 2 Copy</title>
    <desc>Created with Sketch.</desc>
    <defs>
        <linearGradient x1="9.69913844%" y1="91.3496785%" x2="107.861992%" y2="91.3496792%" id="linearGradient-1">
            <stop stop-color="#41BFF0" offset="0%"></stop>
            <stop stop-color="#036D9C" offset="100%"></stop>
        </linearGradient>
    </defs>
    <g id="Symbols" stroke="none" stroke-width="1" fill="none" fill-rule="evenodd">
        <path d="M82.1344871,19.2837329 C83.44353,20.8570471 83.2452262,23.2069175 81.6918064,24.5325225 L75.2330377,16.7710477 C74.4953948,16.0599059 74.1075742,15.1034598 74.0928499,14.1333055 C74.0923749,14.1104586 74.0902375,14.0876116 74.09,14.0645241 C74.0902375,14.0416772 74.0921374,14.0185897 74.0926124,13.9955023 C74.1035369,13.0255885 74.4873202,12.0676994 75.2221132,11.3534311 L81.6488207,3.56478054 C83.2079403,4.88413264 83.4157438,7.23328162 82.1128755,8.81188665 L77.785339,14.0568283 L82.1344871,19.2837329 Z M73.28,13.6300481 C73.28,13.6522473 73.2781,13.6742153 73.2773876,13.6964145 C73.2664628,14.6292445 72.8829102,15.5502811 72.1478666,16.2368384 L65.7210441,23.7260709 C64.1618966,22.4574776 63.9543269,20.1987064 65.256981,18.6806031 L69.5848324,13.6376791 L65.2356065,8.61186695 C63.9265402,7.09908223 64.1246101,4.83938607 65.6782952,3.56478054 L72.1371793,11.0281139 C72.8748354,11.7118963 73.2624255,12.6313142 73.2771501,13.5639129 C73.2778626,13.5861121 73.28,13.6080801 73.28,13.6300481 Z M45.74,4.37123215 L45.74,20.448239 C45.74,22.2583954 44.2242981,23.7260709 42.3546674,23.7260709 L42.3546674,23.7221048 C42.327683,23.7228047 42.3014215,23.7260709 42.2739553,23.7260709 L33.8160447,23.7260709 C31.9018417,23.7260709 30.35,22.2234008 30.35,20.3700843 L42.3546674,20.3700843 L42.3546674,7.64929728 C42.3546674,5.8389076 43.8703693,4.37123215 45.74,4.37123215 Z M50.8262857,7.5970386 C48.9120826,7.5970386 47.36,6.1527581 47.36,4.37123215 L59.2839553,4.37123215 C61.1983993,4.37123215 62.75,5.81551266 62.75,7.5970386 L50.8262857,7.5970386 Z M59.2839553,12.4357483 C61.1981583,12.4357483 62.75,13.8800288 62.75,15.6615547 L50.8262857,15.6615547 C48.9118417,15.6615547 47.36,14.2172742 47.36,12.4357483 L59.2839553,12.4357483 Z M59.2839553,20.5002644 C61.1981583,20.5002644 62.75,21.9443207 62.75,23.7260709 L50.8262857,23.7260709 C48.9118417,23.7260709 47.36,22.2815661 47.36,20.5002644 L59.2839553,20.5002644 Z M17.1500616,17.5722225 L21.0728916,3.02702703 C24.6967973,5.22017738 27.11,9.12384117 27.11,13.5770074 C27.11,20.4381101 21.3848212,26 14.3222866,26 C13.1081822,26 11.9352948,25.8322531 10.8224324,25.5251381 C12.2110094,25.224632 13.4115082,24.6117628 14.4233286,23.6851699 C15.4225438,22.9780281 16.2746979,21.1456406 16.9847929,18.1845086 C17.0288112,18.0218154 17.0838341,17.817137 17.1500616,17.5722225 Z M12.2417179,17.1848021 C12.157196,17.522892 12.0726741,17.8601798 11.9885355,18.1958634 C10.9669895,22.2748001 9.53778328,24.4216511 7.7064751,24.6486486 C4.27806687,22.3770693 2,18.376138 2,13.816135 C2,6.738104 7.48434154,1 14.249353,1 C14.9314698,1 15.5997871,1.06116099 16.2516216,1.17325605 L12.2417179,17.1848021 Z" id="logo-copy" fill="url(#linearGradient-1)"></path>
    </g>
</svg>